<svg width="51" height="44" viewBox="0 0 51 44" fill="none" xmlns="http://www.w3.org/2000/svg">
<g id="Group">
<g id="Group_2">
<path id="Vector" d="M37.3983 36.5498V14.45H3.39844V36.5498C3.39844 37.4888 4.1595 38.2498 5.09843 38.2498H35.6983C36.6372 38.2498 37.3983 37.4888 37.3983 36.5498Z" fill="#289BC3"/>
</g>
<g id="Group_3">
<path id="Vector_2" d="M13.6015 33.1498H10.2015C7.38486 33.1498 5.10156 35.4331 5.10156 38.2498C5.10156 41.0664 7.38486 43.3497 10.2015 43.3497H13.6015C16.4182 43.3497 18.7015 41.0664 18.7015 38.2498C18.7015 35.4331 16.4182 33.1498 13.6015 33.1498Z" fill="#32283C"/>
</g>
<g id="Group_4">
<path id="Vector_3" d="M44.1992 33.1498H40.7992C37.9825 33.1498 35.6992 35.4331 35.6992 38.2498C35.6992 41.0664 37.9825 43.3497 40.7992 43.3497H44.1992C47.0158 43.3497 49.2991 41.0664 49.2991 38.2498C49.2991 35.4331 47.0158 33.1498 44.1992 33.1498Z" fill="#32283C"/>
</g>
<g id="Group_5">
<path id="Vector_4" d="M40.7992 43.3497C43.6158 43.3497 45.8992 41.0664 45.8992 38.2498C45.8992 35.4331 43.6158 33.1498 40.7992 33.1498C37.9826 33.1498 35.6992 35.4331 35.6992 38.2498C35.6992 41.0664 37.9826 43.3497 40.7992 43.3497Z" fill="#555A6E"/>
</g>
<g id="Group_6">
<path id="Vector_5" d="M40.7976 39.9498C41.7365 39.9498 42.4976 39.1887 42.4976 38.2498C42.4976 37.3109 41.7365 36.5498 40.7976 36.5498C39.8588 36.5498 39.0977 37.3109 39.0977 38.2498C39.0977 39.1887 39.8588 39.9498 40.7976 39.9498Z" fill="#E6E6EB"/>
</g>
<g id="Group_7">
<path id="Vector_6" d="M30.6015 33.1498H27.2015C24.3849 33.1498 22.1016 35.4331 22.1016 38.2498C22.1016 41.0664 24.3849 43.3497 27.2015 43.3497H30.6015C33.4182 43.3497 35.7015 41.0664 35.7015 38.2498C35.7015 35.4331 33.4182 33.1498 30.6015 33.1498Z" fill="#32283C"/>
</g>
<g id="Group_8">
<path id="Vector_7" d="M47.6022 16.1499H22.1023C21.1634 16.1499 20.4023 16.911 20.4023 17.8499V19.5499H47.6022C48.5411 19.5499 49.3022 18.7888 49.3022 17.8499C49.3022 16.911 48.5411 16.1499 47.6022 16.1499Z" fill="#A5C3DC"/>
</g>
<g id="Group_9">
<path id="Vector_8" d="M30.6023 16.1499H22.1023C21.1634 16.1499 20.4023 16.911 20.4023 17.8499V19.5499H30.6023C31.5412 19.5499 32.3023 18.7888 32.3023 17.8499C32.3023 16.911 31.5412 16.1499 30.6023 16.1499Z" fill="#D7E6F0"/>
</g>
<g id="Group_10">
<path id="Vector_9" d="M20.4023 19.5499H47.6022V28.0499H20.4023V19.5499Z" fill="#463C4B"/>
</g>
<g id="Group_11">
<path id="Vector_10" d="M20.4023 19.5499H30.6023V28.0499H20.4023V19.5499Z" fill="#555A6E"/>
</g>
<g id="Group_12">
<path id="Vector_11" d="M49.3022 38.2498H22.1023C21.1634 38.2498 20.4023 37.4887 20.4023 36.5498V28.0498H47.6022C49.4799 28.0498 51.0022 29.572 51.0022 31.4498V36.5498C51.0022 37.4887 50.2411 38.2498 49.3022 38.2498Z" fill="#A5C3DC"/>
</g>
<g id="Group_13">
<path id="Vector_12" d="M32.3023 38.2498H22.1023C21.1634 38.2498 20.4023 37.4887 20.4023 36.5498V28.0498H30.6023C32.48 28.0498 34.0023 29.572 34.0023 31.4498V36.5498C34.0023 37.4887 33.2412 38.2498 32.3023 38.2498Z" fill="#D7E6F0"/>
</g>
<g id="Group_14">
<path id="Vector_13" d="M38.1077 31.4498H46.891C48.221 31.4498 49.2993 32.528 49.2993 33.8582C49.2993 35.1882 48.221 36.2665 46.8909 36.2665H38.1076C36.7775 36.2665 35.6992 35.1883 35.6992 33.8582C35.6993 32.528 36.7775 31.4498 38.1077 31.4498Z" fill="#555A6E"/>
</g>
<g id="Group_15">
<path id="Vector_14" d="M38.1109 35.1332C38.8151 35.1332 39.3859 34.5624 39.3859 33.8582C39.3859 33.1541 38.8151 32.5833 38.1109 32.5833C37.4068 32.5833 36.8359 33.1541 36.8359 33.8582C36.8359 34.5624 37.4068 35.1332 38.1109 35.1332Z" fill="#00D2D2"/>
</g>
<g id="Group_16">
<path id="Vector_15" d="M46.8883 35.1332C47.5924 35.1332 48.1633 34.5624 48.1633 33.8582C48.1633 33.1541 47.5924 32.5833 46.8883 32.5833C46.1841 32.5833 45.6133 33.1541 45.6133 33.8582C45.6133 34.5624 46.1841 35.1332 46.8883 35.1332Z" fill="#00D2D2"/>
</g>
<g id="Group_17">
<path id="Vector_16" d="M16.1492 0H11.0492C10.5798 0 10.1992 0.380586 10.1992 0.849996C10.1992 1.31941 10.5798 1.69999 11.0492 1.69999C14.33 1.69999 16.9992 4.36919 16.9992 7.64996C16.9992 8.11937 17.3798 8.49996 17.8492 8.49996H22.9492C23.4186 8.49996 23.7991 8.11937 23.7991 7.64996C23.7991 3.43175 20.3674 0 16.1492 0Z" fill="#A5C3DC"/>
<path id="Vector_17" d="M29.7499 0H24.65C20.4318 0 17 3.43175 17 7.64996C17 8.11937 17.3806 8.49996 17.85 8.49996H22.95C23.4194 8.49996 23.8 8.11937 23.8 7.64996C23.8 4.36919 26.4692 1.69999 29.7499 1.69999C30.2193 1.69999 30.5999 1.31941 30.5999 0.849996C30.5999 0.380586 30.2193 0 29.7499 0Z" fill="#A5C3DC"/>
<path id="Vector_18" d="M33.1492 0H28.0492C27.5798 0 27.1992 0.380586 27.1992 0.849996C27.1992 1.31941 27.5798 1.69999 28.0492 1.69999C29.4553 1.69999 30.5992 2.84387 30.5992 4.24998C30.5992 5.65608 29.4553 6.79996 28.0492 6.79996C27.5798 6.79996 27.1992 7.18055 27.1992 7.64996C27.1992 8.11937 27.5798 8.49996 28.0492 8.49996H33.1492C35.4926 8.49996 37.3992 6.59342 37.3992 4.24998C37.3992 1.90654 35.4926 0 33.1492 0Z" fill="#A5C3DC"/>
<path id="Vector_19" d="M12.7484 6.79996C11.3423 6.79996 10.1984 5.65608 10.1984 4.24998C10.1984 2.84387 11.3423 1.69999 12.7484 1.69999C13.2178 1.69999 13.5984 1.31941 13.5984 0.849996C13.5984 0.380586 13.2178 0 12.7484 0H7.64842C5.30498 0 3.39844 1.90654 3.39844 4.24998C3.39844 6.59342 5.30498 8.49996 7.64842 8.49996H12.7484C13.2178 8.49996 13.5984 8.11937 13.5984 7.64996C13.5984 7.18055 13.2178 6.79996 12.7484 6.79996Z" fill="#A5C3DC"/>
</g>
<g id="Group_18">
<path id="Vector_20" d="M39.0998 8.5H1.69999C0.761065 8.5 0 9.26106 0 10.2V12.75C0 13.6889 0.761065 14.45 1.69999 14.45H39.0998C40.0387 14.45 40.7998 13.6889 40.7998 12.75V10.2C40.7998 9.26106 40.0387 8.5 39.0998 8.5Z" fill="#289BC3"/>
</g>
<g id="Group_19">
<path id="Vector_21" d="M18.6984 38.2498H5.09843C4.1595 38.2498 3.39844 37.4888 3.39844 36.5498V19.5499H20.3983V36.5498C20.3983 37.4888 19.6373 38.2498 18.6984 38.2498Z" fill="#00D2D2"/>
</g>
<g id="Group_20">
<path id="Vector_22" d="M20.3999 8.5H1.69999C0.761065 8.5 0 9.26106 0 10.2V12.75C0 13.6889 0.761065 14.45 1.69999 14.45H20.3999C21.3388 14.45 22.0999 13.6889 22.0999 12.75V10.2C22.0999 9.26106 21.3388 8.5 20.3999 8.5Z" fill="#00D2D2"/>
</g>
<g id="Group_21">
<path id="Vector_23" d="M11.8968 12.7499C11.8968 13.6888 12.6579 14.4498 13.5968 14.4498H8.49687C7.55794 14.4498 6.79688 13.6888 6.79688 12.7499V10.1999C6.79688 9.26094 7.55794 8.49988 8.49687 8.49988H13.5968C12.6579 8.49988 11.8968 9.26094 11.8968 10.1999V12.7499Z" fill="#D7E6F0"/>
</g>
<g id="Group_22">
<path id="Vector_24" d="M28.9031 12.75C28.9031 13.6889 28.1421 14.45 27.2031 14.45H32.3031C33.242 14.45 34.0031 13.6889 34.0031 12.75V10.2C34.0031 9.26106 33.242 8.5 32.3031 8.5H27.2031C28.1421 8.5 28.9031 9.26106 28.9031 10.2V12.75Z" fill="#A5C3DC"/>
</g>
<g id="Group_23">
<path id="Vector_25" d="M28.0538 8.49996H17.0039V7.64996C17.0039 3.43175 20.4357 0 24.6539 0H28.0538C30.3973 0 32.3038 1.90654 32.3038 4.24998C32.3038 6.59342 30.3973 8.49996 28.0538 8.49996ZM18.7645 6.79996H28.0538C29.46 6.79996 30.6038 5.65608 30.6038 4.24998C30.6038 2.84387 29.46 1.69999 28.0538 1.69999H24.6539C21.6616 1.69999 19.1781 3.92029 18.7645 6.79996Z" fill="#D7E6F0"/>
</g>
<g id="Group_24">
<path id="Vector_26" d="M18.6984 8.49996H7.64842C5.30498 8.49996 3.39844 6.59342 3.39844 4.24998C3.39844 1.90654 5.30498 0 7.64842 0H11.0484C15.2666 0 18.6984 3.43175 18.6984 7.64996V8.49996ZM7.64842 1.69999C6.24231 1.69999 5.09843 2.84387 5.09843 4.24998C5.09843 5.65608 6.24231 6.79996 7.64842 6.79996H16.9378C16.5241 3.92029 14.0406 1.69999 11.0484 1.69999H7.64842Z" fill="#D7E6F0"/>
</g>
<g id="Group_25">
<path id="Vector_27" d="M27.2015 43.3497C30.0182 43.3497 32.3015 41.0664 32.3015 38.2498C32.3015 35.4331 30.0182 33.1498 27.2015 33.1498C24.3849 33.1498 22.1016 35.4331 22.1016 38.2498C22.1016 41.0664 24.3849 43.3497 27.2015 43.3497Z" fill="#555A6E"/>
</g>
<g id="Group_26">
<path id="Vector_28" d="M27.2 39.9498C28.1389 39.9498 28.9 39.1887 28.9 38.2498C28.9 37.3109 28.1389 36.5498 27.2 36.5498C26.2611 36.5498 25.5 37.3109 25.5 38.2498C25.5 39.1887 26.2611 39.9498 27.2 39.9498Z" fill="#E6E6EB"/>
</g>
<g id="Group_27">
<path id="Vector_29" d="M10.2015 43.3497C13.0182 43.3497 15.3015 41.0664 15.3015 38.2498C15.3015 35.4331 13.0182 33.1498 10.2015 33.1498C7.3849 33.1498 5.10156 35.4331 5.10156 38.2498C5.10156 41.0664 7.3849 43.3497 10.2015 43.3497Z" fill="#555A6E"/>
</g>
<g id="Group_28">
<path id="Vector_30" d="M10.1961 39.9498C11.135 39.9498 11.8961 39.1887 11.8961 38.2498C11.8961 37.3109 11.135 36.5498 10.1961 36.5498C9.25721 36.5498 8.49609 37.3109 8.49609 38.2498C8.49609 39.1887 9.25721 39.9498 10.1961 39.9498Z" fill="#E6E6EB"/>
</g>
</g>
</svg>
